<svg height="496pt" viewBox="-112 0 496 496.01039" width="496pt" xmlns="http://www.w3.org/2000/svg"><path d="m272.003906 143.675781c0-11.746093-3.292968-23.21875-9.519531-33.195312l-31.695313-50.710938c-1.886718-3.03125-5.574218-4.4375-8.992187-3.445312-3.433594.980469-5.792969 4.117187-5.792969 7.6875v8c0 21.375-6.269531 42.589843-17.789062 60.558593-29.074219-23.742187-46.210938-59.574218-46.210938-97.382812v-27.175781c0-3.234375-1.949218-6.160157-4.933594-7.394531-3-1.253907-6.433593-.5585942-8.722656 1.738281l-7.429687 7.429687c-33.007813 33.007813-53.136719 75.472656-57.839844 121.289063-11.105469-16.535157-17.074219-35.96875-17.074219-56.320313v-26.742187c0-3.648438-2.460937-6.832031-5.992187-7.746094-3.542969-.917969-7.230469.671875-9 3.855469l-32.519531 58.546875c-5.550782 9.992187-8.48828175 21.300781-8.48828175 32.734375 0 14.871094 4.84765575 28.96875 13.68749975 40.609375h-5.6875c-2.285156 0-4.460937.976562-5.976562 2.6875-1.519532 1.703125-2.230469 3.976562-1.964844 6.246093l31.941406 271.535157v31.53125c0 4.421875 3.585938 8 8 8h192c4.417969 0 8-3.578125 8-8v-31.53125l31.945313-271.535157c.265625-2.269531-.449219-4.542968-1.96875-6.246093-1.511719-1.710938-3.6875-2.6875-5.976563-2.6875h-.023437c5.207031-9.25 8.023437-19.714844 8.023437-30.625zm-70.472656 208.335938h-131.054688l-6.398437-48h143.863281zm-2.125 16-1.769531 13.285156c-2.648438 19.792969-19.6875 34.714844-39.65625 34.714844h-43.953125c-19.964844 0-37.007813-14.921875-39.644532-34.714844l-1.777343-13.285156zm10.664062-80h-148.128906l-6.398437-48h160.925781zm8.535157-64h-165.199219l-4.265625-32h173.730469zm5.398437 256h-176v-16h176zm.890625-32h-177.777343l-30.121094-256h16l25.519531 191.398437c3.699219 27.710938 27.5625 48.601563 55.511719 48.601563h43.953125c27.953125 0 51.816406-20.890625 55.503906-48.601563l25.519531-191.398437h16zm-189.578125-272-4.253906-4.257813c-9.714844-9.710937-15.058594-22.617187-15.058594-36.351562 0-8.710938 2.242188-17.34375 6.472656-24.960938l17.601563-31.671875c1 29.816407 13.078125 57.695313 34.277344 78.898438 2.289062 2.285156 5.714843 2.980469 8.722656 1.734375 2.976563-1.230469 4.925781-4.160156 4.925781-7.390625 0-46.441407 16.976563-90.257813 48-124.386719v7.5625c0 45.671875 22.183594 88.789062 59.351563 115.328125 3.53125 2.527344 8.449219 1.765625 11.050781-1.714844 12.917969-17.222656 21.296875-37.671875 24.328125-58.933593l18.183594 29.085937c4.640625 7.433594 7.085937 15.976563 7.085937 24.722656v1.710938c0 11.390625-4.101562 22.136719-11.527344 30.625zm0 0"/></svg>